<svg width="219" height="39" viewBox="0 0 219 39" fill="none" xmlns="http://www.w3.org/2000/svg">
<path d="M21 4.496V9.92H7.032V18.512H17.736V23.84H7.032V38H0.312V4.496H21ZM50.8691 11.408V38H44.1011V34.64C43.2371 35.792 42.1011 36.704 40.6931 37.376C39.3171 38.016 37.8131 38.336 36.1811 38.336C34.1011 38.336 32.2611 37.904 30.6611 37.04C29.0611 36.144 27.7971 34.848 26.8691 33.152C25.9731 31.424 25.5251 29.376 25.5251 27.008V11.408H32.2451V26.048C32.2451 28.16 32.7731 29.792 33.8291 30.944C34.8851 32.064 36.3251 32.624 38.1491 32.624C40.0051 32.624 41.4611 32.064 42.5171 30.944C43.5731 29.792 44.1011 28.16 44.1011 26.048V11.408H50.8691ZM67.6755 38.432C65.4995 38.432 63.5475 38.048 61.8195 37.28C60.0915 36.48 58.7155 35.408 57.6915 34.064C56.6995 32.72 56.1555 31.232 56.0595 29.6H62.8275C62.9555 30.624 63.4515 31.472 64.3155 32.144C65.2115 32.816 66.3155 33.152 67.6275 33.152C68.9075 33.152 69.8995 32.896 70.6035 32.384C71.3395 31.872 71.7075 31.216 71.7075 30.416C71.7075 29.552 71.2595 28.912 70.3635 28.496C69.4995 28.048 68.1075 27.568 66.1875 27.056C64.2035 26.576 62.5715 26.08 61.2915 25.568C60.0435 25.056 58.9555 24.272 58.0275 23.216C57.1315 22.16 56.6835 20.736 56.6835 18.944C56.6835 17.472 57.0995 16.128 57.9315 14.912C58.7955 13.696 60.0115 12.736 61.5795 12.032C63.1795 11.328 65.0515 10.976 67.1955 10.976C70.3635 10.976 72.8915 11.776 74.7795 13.376C76.6675 14.944 77.7075 17.072 77.8995 19.76H71.4675C71.3715 18.704 70.9235 17.872 70.1235 17.264C69.3555 16.624 68.3155 16.304 67.0035 16.304C65.7875 16.304 64.8435 16.528 64.1715 16.976C63.5315 17.424 63.2115 18.048 63.2115 18.848C63.2115 19.744 63.6595 20.432 64.5555 20.912C65.4515 21.36 66.8435 21.824 68.7315 22.304C70.6515 22.784 72.2355 23.28 73.4835 23.792C74.7315 24.304 75.8035 25.104 76.6995 26.192C77.6275 27.248 78.1075 28.656 78.1395 30.416C78.1395 31.952 77.7075 33.328 76.8435 34.544C76.0115 35.76 74.7955 36.72 73.1955 37.424C71.6275 38.096 69.7875 38.432 67.6755 38.432ZM87.0638 8.24C85.8798 8.24 84.8878 7.872 84.0878 7.136C83.3198 6.368 82.9358 5.424 82.9358 4.304C82.9358 3.184 83.3198 2.256 84.0878 1.52C84.8878 0.751998 85.8798 0.367998 87.0638 0.367998C88.2478 0.367998 89.2238 0.751998 89.9918 1.52C90.7918 2.256 91.1918 3.184 91.1918 4.304C91.1918 5.424 90.7918 6.368 89.9918 7.136C89.2238 7.872 88.2478 8.24 87.0638 8.24ZM90.3758 11.408V38H83.6558V11.408H90.3758ZM108.823 38.432C106.263 38.432 103.959 37.872 101.911 36.752C99.8631 35.6 98.2471 33.984 97.0631 31.904C95.9111 29.824 95.3351 27.424 95.3351 24.704C95.3351 21.984 95.9271 19.584 97.1111 17.504C98.3271 15.424 99.9751 13.824 102.055 12.704C104.135 11.552 106.455 10.976 109.015 10.976C111.575 10.976 113.895 11.552 115.975 12.704C118.055 13.824 119.687 15.424 120.871 17.504C122.087 19.584 122.695 21.984 122.695 24.704C122.695 27.424 122.071 29.824 120.823 31.904C119.607 33.984 117.943 35.6 115.831 36.752C113.751 37.872 111.415 38.432 108.823 38.432ZM108.823 32.576C110.039 32.576 111.175 32.288 112.231 31.712C113.319 31.104 114.183 30.208 114.823 29.024C115.463 27.84 115.783 26.4 115.783 24.704C115.783 22.176 115.111 20.24 113.767 18.896C112.455 17.52 110.839 16.832 108.919 16.832C106.999 16.832 105.383 17.52 104.071 18.896C102.791 20.24 102.151 22.176 102.151 24.704C102.151 27.232 102.775 29.184 104.023 30.56C105.303 31.904 106.903 32.576 108.823 32.576ZM142.361 11.024C145.529 11.024 148.089 12.032 150.041 14.048C151.993 16.032 152.969 18.816 152.969 22.4V38H146.249V23.312C146.249 21.2 145.721 19.584 144.665 18.464C143.609 17.312 142.169 16.736 140.345 16.736C138.489 16.736 137.017 17.312 135.929 18.464C134.873 19.584 134.345 21.2 134.345 23.312V38H127.625V11.408H134.345V14.72C135.241 13.568 136.377 12.672 137.753 12.032C139.161 11.36 140.697 11.024 142.361 11.024Z" fill="#141415"/>
<path d="M187.151 4.496V38H180.431V23.744H166.079V38H159.359V4.496H166.079V18.272H180.431V4.496H187.151Z" fill="#FF6835"/>
<path d="M211.045 38L203.653 24.944H200.485V38H193.765V4.496H206.341C208.933 4.496 211.141 4.96 212.965 5.888C214.789 6.784 216.149 8.016 217.045 9.584C217.973 11.12 218.437 12.848 218.437 14.768C218.437 16.976 217.797 18.976 216.517 20.768C215.237 22.528 213.333 23.744 210.805 24.416L218.821 38H211.045ZM200.485 19.904H206.101C207.925 19.904 209.285 19.472 210.181 18.608C211.077 17.712 211.525 16.48 211.525 14.912C211.525 13.376 211.077 12.192 210.181 11.36C209.285 10.496 207.925 10.064 206.101 10.064H200.485V19.904Z" fill="#E5625E"/>
</svg>
